# xmcd
#
# Track frame offsets:
#	150
#	25012
#	32829
#	51953
#	74218
#	105958
#	118650
#	134976
#	147757
#	168752
#	173846
#	182400
#	201010
#	217874
#	235237
#	265759
#	280100
#	313923
#
# Disc length: 4509 seconds
#
# Revision: 0
# Processed by: cddbd v1.5.2PL0 Copyright (c) Steve Scherf et al.
# Submitted via: EasyCDDAExtractor 16.0.8.2
#
DISCID=07119b12
DTITLE=Συλλογικός δίσκος - Σύνοψη ιστορίας ελλ. τραγουδιού 1
DYEAR=2001
DGENRE=Ποικίλη
TTITLE0=Χορωδία - Στάσιμο Ορέστη Ευριπίδη-Οργαν. ΚΠόλεως-Ύμνος Απόλλωνα
TTITLE1=Άνευ ερμηνευτού - Ύμνος στη Νέμεση [Κρήτη 130 π.Χ.]
TTITLE2=Άγνωστος - Αφήγηση-μουσική [2ος αι. μ.Χ.]
TTITLE3=Άγνωστος - Ύμνος στον Δελφικό Απόλλωνα [128 π.Χ.]
TTITLE4=Χορωδία - Γεύσσθε και ίδετε [ήχ. α', 18 αι., επιτομή Ιωάννου Τραπεζούν
TTITLE4=τος]
TTITLE5=Άγνωστος - Ερωτόκριτος [χειρόγραφο 1710]
TTITLE6=Άγνωστος - Στάσιμο Ορέστη Ευριπίδη [Χρ. Χάλαρη]
TTITLE7=Άγνωστος - Λόγιο παραμύθι [αφήγ., 1668 μ.Χ., κτήσις Θεσ/νίκης, συλ. Γ.
TTITLE7=Μελίκης]
TTITLE8=Άνευ ερμηνευτού - Σκοπός σελανίκ [Γιδάς, 18ος αι., συλλ. Γ.Μελίκης]
TTITLE9=Άγνωστος - Μέγαν εύρατον [απολυτ. Αγ. Δημητρίου, συλλ. Γ.Μελίκης]
TTITLE10=Άνευ ερμηνευτού - Αντικρυστός [οργανικό]
TTITLE11=Ομάδα πυροβατών - Αναστενάρια [η πυροβασία]
TTITLE12=Χορωδία - Ισείς πουλιά πετούμενα [παραδοσιακό, Νιγρίτα Σερρών]
TTITLE13=Χορωδία - Νάϊλοι εμάς, να βάϊ εμάς [ποντιακό]
TTITLE14=Μελίκης Γιώργος - Σαλονίκη παινεμένη [δημοτικό, συλλ. Γ.Μελίκης]
TTITLE15=Άνευ ερμηνευτού - Βυζαντινός αυτοσχεδιασμός [κλαρίνο, Γ.Βασιλόπουλος]
TTITLE16=Άγνωστος - Τζιβαέρι [Σμύρνη, αρχές 20ου αι.]
TTITLE17=Λεμπέσης Γιάννης - Τα μαλλιά τα πλεμμένα [αϊδίνικο ζεϊμπέκικο, Μ. Ασί
TTITLE17=ας, αρχές 20ου αι.]
EXTD=
EXTT0=
EXTT1=
EXTT2=
EXTT3=
EXTT4=
EXTT5=
EXTT6=
EXTT7=
EXTT8=
EXTT9=
EXTT10=
EXTT11=
EXTT12=
EXTT13=
EXTT14=
EXTT15=
EXTT16=
EXTT17=
PLAYORDER=
